<svg xmlns="http://www.w3.org/2000/svg" width="24" height="24" viewBox="0 0 24 24" fill="none" stroke="grey" stroke-width="1" stroke-linecap="round" stroke-linejoin="round" class="lucide lucide-sparkles-icon lucide-sparkles"><path d="M9.937 15.5A2 2 0 0 0 8.5 14.063l-6.135-1.582a.5.5 0 0 1 0-.962L8.5 9.936A2 2 0 0 0 9.937 8.5l1.582-6.135a.5.5 0 0 1 .963 0L14.063 8.5A2 2 0 0 0 15.5 9.937l6.135 1.581a.5.5 0 0 1 0 .964L15.5 14.063a2 2 0 0 0-1.437 1.437l-1.582 6.135a.5.5 0 0 1-.963 0z"/><path d="M20 3v4"/><path d="M22 5h-4"/><path d="M4 17v2"/><path d="M5 18H3"/><path d="M10.1 2.182a10 10 0 0 1 3.8 0"/><path d="M13.9 21.818a10 10 0 0 1-3.8 0"/><path d="M17.609 3.721a10 10 0 0 1 2.69 2.7"/><path d="M2.182 13.9a10 10 0 0 1 0-3.8"/><path d="M20.279 17.609a10 10 0 0 1-2.7 2.69"/><path d="M21.818 10.1a10 10 0 0 1 0 3.8"/><path d="M3.721 6.391a10 10 0 0 1 2.7-2.69"/><path d="M6.391 20.279a10 10 0 0 1-2.69-2.7"/></svg>