<svg width="24" height="24" xmlns="http://www.w3.org/2000/svg" xmlns:xlink="http://www.w3.org/1999/xlink" xml:space="preserve" overflow="hidden"><g transform="translate(-628 -348)"><path d="M645 368 645 359" stroke="#808080" stroke-width="2" stroke-linecap="round" stroke-linejoin="round" fill="none"/><path d="M635 362 635 353" stroke="#808080" stroke-width="2" stroke-linecap="round" stroke-linejoin="round" fill="none"/><path d="M635 368C633.343 368 632 366.657 632 365 632 363.343 633.343 362 635 362 636.657 362 638 363.343 638 365 638 366.657 636.657 368 635 368Z" stroke="#808080" stroke-width="2" stroke-linecap="round" stroke-linejoin="round" fill="none"/><path d="M645 358C643.343 358 642 356.657 642 355 642 353.343 643.343 352 645 352 646.657 352 648 353.343 648 355 648 356.657 646.657 358 645 358Z" stroke="#808080" stroke-width="2" stroke-linecap="round" stroke-linejoin="round" fill="none"/></g></svg>