<svg width="1384" height="1375" xmlns="http://www.w3.org/2000/svg" xmlns:xlink="http://www.w3.org/1999/xlink" xml:space="preserve" overflow="hidden"><defs><clipPath id="clip0"><rect x="1562" y="296" width="1384" height="1375"/></clipPath></defs><g clip-path="url(#clip0)" transform="translate(-1562 -296)"><path d="M1562 525.171C1562 398.604 1664.6 296 1791.17 296L2716.83 296C2843.4 296 2946 398.604 2946 525.171L2946 1441.83C2946 1568.4 2843.4 1671 2716.83 1671L1791.17 1671C1664.6 1671 1562 1568.4 1562 1441.83Z" fill="#404040" fill-rule="evenodd"/><path d="M2602.53 1392.8C2613.89 1381.57 2604.93 1367.85 2582.52 1362.15 2578.52 1361.14 2574.25 1360.42 2569.84 1360.04L2430.27 1323.97C2424.23 1322.25 2420.72 1315.94 2422.44 1309.89 2423.51 1306.09 2426.48 1303.11 2430.27 1302.03L2569.84 1265.94C2585.87 1261.8 2598.38 1249.26 2602.53 1233.2L2638.52 1093.33C2640.21 1087.27 2646.49 1083.73 2652.54 1085.42 2656.36 1086.5 2659.35 1089.5 2660.42 1093.33L2696.39 1233.2C2700.53 1249.27 2713.05 1261.82 2729.08 1265.97L2868.65 1302.01C2874.7 1303.68 2878.26 1309.96 2876.59 1316.03 2875.52 1319.9 2872.51 1322.92 2868.65 1323.99L2729.08 1360.04C2713.05 1364.18 2700.53 1376.73 2696.39 1392.8L2660.4 1532.67C2658.71 1538.73 2652.43 1542.27 2646.38 1540.57 2642.56 1539.5 2639.57 1536.5 2638.49 1532.67Z" fill="#CCCCCC" fill-rule="evenodd"/><path d="M2696.47 1233.2C2685.11 1244.43 2694.07 1258.15 2716.48 1263.85 2720.48 1264.86 2724.75 1265.58 2729.16 1265.96L2868.73 1302.03C2874.77 1303.75 2878.28 1310.06 2876.56 1316.11 2875.49 1319.91 2872.52 1322.89 2868.73 1323.97L2729.16 1360.06C2713.13 1364.2 2700.62 1376.74 2696.47 1392.8L2660.48 1532.67C2658.79 1538.73 2652.51 1542.27 2646.46 1540.58 2642.64 1539.5 2639.65 1536.5 2638.58 1532.67L2602.61 1392.8C2598.47 1376.73 2585.95 1364.18 2569.92 1360.03L2430.35 1323.99C2424.3 1322.32 2420.74 1316.04 2422.41 1309.97 2423.48 1306.1 2426.49 1303.08 2430.35 1302.01L2569.92 1265.96C2585.95 1261.82 2598.47 1249.27 2602.61 1233.2L2638.6 1093.33C2640.29 1087.27 2646.57 1083.73 2652.62 1085.43 2656.44 1086.5 2659.43 1089.49 2660.51 1093.33Z" fill="#CCCCCC" fill-rule="evenodd"/><path d="M2032.12 1110.42C2054.34 1088.47 2036.82 1061.67 1992.98 1050.54 1985.17 1048.56 1976.81 1047.17 1968.18 1046.4L1695.18 975.928C1683.36 972.57 1676.5 960.252 1679.85 948.42 1681.96 940.989 1687.76 935.179 1695.18 933.073L1968.18 862.553C1999.53 854.46 2024.02 829.962 2032.12 798.581L2102.52 525.277C2105.83 513.43 2118.1 506.514 2129.94 509.83 2137.43 511.927 2143.27 517.784 2145.37 525.277L2215.72 798.581C2223.81 829.979 2248.3 854.498 2279.67 862.597L2552.66 933.028C2564.51 936.298 2571.46 948.563 2568.19 960.426 2566.11 967.98 2560.21 973.889 2552.66 975.973L2279.67 1046.4C2248.3 1054.5 2223.81 1079.02 2215.72 1110.42L2145.32 1383.72C2142.01 1395.57 2129.74 1402.49 2117.9 1399.17 2110.42 1397.07 2104.57 1391.22 2102.47 1383.72Z" fill="#CCCCCC" fill-rule="evenodd"/><path d="M2215.88 798.581C2193.66 820.525 2211.18 847.334 2255.02 858.458 2262.83 860.44 2271.19 861.835 2279.82 862.596L2552.82 933.073C2564.64 936.431 2571.5 948.749 2568.15 960.58 2566.04 968.011 2560.24 973.821 2552.82 975.928L2279.82 1046.45C2248.47 1054.54 2223.98 1079.04 2215.88 1110.42L2145.48 1383.72C2142.17 1395.57 2129.9 1402.49 2118.06 1399.17 2110.57 1397.07 2104.73 1391.22 2102.63 1383.72L2032.28 1110.42C2024.19 1079.02 1999.7 1054.5 1968.33 1046.4L1695.34 975.972C1683.49 972.702 1676.54 960.438 1679.81 948.574 1681.89 941.02 1687.79 935.112 1695.34 933.027L1968.33 862.596C1999.7 854.498 2024.19 829.977 2032.28 798.581L2102.68 525.276C2105.99 513.43 2118.26 506.512 2130.1 509.831 2137.58 511.926 2143.43 517.784 2145.53 525.276Z" fill="#CCCCCC" fill-rule="evenodd"/><path d="M2483 448.167C2483 441.447 2488.45 436 2495.17 436L2802.83 436C2809.55 436 2815 441.447 2815 448.167L2815 496.833C2815 503.553 2809.55 509 2802.83 509L2495.17 509C2488.45 509 2483 503.553 2483 496.833Z" fill="#CCCCCC" fill-rule="evenodd"/><path d="M2679.83 436C2686.55 436 2692 441.447 2692 448.167L2692 755.833C2692 762.553 2686.55 768 2679.83 768L2631.17 768C2624.45 768 2619 762.553 2619 755.833L2619 448.167C2619 441.447 2624.45 436 2631.17 436Z" fill="#CCCCCC" fill-rule="evenodd"/></g></svg>