<svg width="24" height="24" xmlns="http://www.w3.org/2000/svg" xmlns:xlink="http://www.w3.org/1999/xlink" xml:space="preserve" overflow="hidden"><g transform="translate(-624 -344)"><path d="M627 355.663C627 351.29 630.54 347.75 634.912 347.75L637.995 347.75C641.864 347.75 645 350.886 645 354.755 645 358.624 641.864 361.76 637.995 361.76L629.685 361.76 627.518 363.86C627.393 363.976 627.199 363.969 627.083 363.845 627.03 363.788 627 363.713 627 363.635L627 355.663Z" fill="#FFD21E"/><path d="M638.722 353.36C639 353.465 639.112 354.035 639.398 353.885 639.93 353.6 640.133 352.932 639.847 352.4 639.567 351.864 638.905 351.658 638.369 351.939 638.367 351.94 638.365 351.941 638.362 351.943 637.826 352.23 637.625 352.899 637.912 353.435 638.04 353.69 638.468 353.277 638.722 353.36ZM633.54 353.36C633.263 353.465 633.15 354.035 632.865 353.885 632.333 353.597 632.132 352.935 632.415 352.4 632.696 351.864 633.358 351.658 633.893 351.939 633.896 351.94 633.898 351.941 633.9 351.943 634.432 352.228 634.635 352.895 634.35 353.435 634.215 353.69 633.795 353.277 633.54 353.36ZM636.18 358.663C638.347 358.663 639.045 356.728 639.045 355.737 639.045 354.74 637.763 356.263 636.18 356.263 634.605 356.263 633.33 354.74 633.33 355.737 633.33 356.728 634.02 358.663 636.18 358.663Z" fill="#32343D"/><path d="M637.92 358.1C637.492 358.43 636.922 358.663 636.18 358.663 635.49 358.663 634.943 358.46 634.53 358.152 634.755 357.68 635.182 357.32 635.693 357.163 635.782 357.14 635.872 357.29 635.963 357.448 636.052 357.598 636.143 357.747 636.24 357.747 636.338 357.747 636.435 357.598 636.532 357.448 636.63 357.297 636.727 357.147 636.818 357.177 637.291 357.331 637.686 357.661 637.92 358.1Z" fill="#FF323D"/></g></svg>