<svg width="19" height="19" xmlns="http://www.w3.org/2000/svg" xmlns:xlink="http://www.w3.org/1999/xlink" xml:space="preserve" overflow="hidden"><defs><linearGradient x1="281.459" y1="8.45888" x2="299.088" y2="10.5374" gradientUnits="userSpaceOnUse" spreadMethod="reflect" id="fill0"><stop offset="0" stop-color="#0064E1"/><stop offset="0.4" stop-color="#0064E1"/><stop offset="0.83" stop-color="#0073EE"/><stop offset="1" stop-color="#0082FB"/></linearGradient><linearGradient x1="282.996" y1="13.2244" x2="282.996" y2="4.57291" gradientUnits="userSpaceOnUse" spreadMethod="reflect" id="fill1"><stop offset="0" stop-color="#0082FB"/><stop offset="0.5" stop-color="#0073ED"/><stop offset="1" stop-color="#0064E0"/></linearGradient></defs><g transform="translate(-280 0)"><path d="M282.34 11.0691C282.34 11.6354 282.493 12.0702 282.693 12.3332 282.955 12.6776 283.347 12.8237 283.745 12.8237 284.26 12.8237 284.73 12.7199 285.637 11.7014 286.364 10.885 287.22 9.73888 287.796 9.02057L288.771 7.80347C289.449 6.95824 290.233 6.01857 291.133 5.38161 291.867 4.86179 292.659 4.57291 293.456 4.57291 294.794 4.57291 296.068 5.20268 297.044 6.38363 298.111 7.6771 298.63 9.30631 298.63 10.9875 298.63 11.987 298.387 12.7215 297.974 13.3017 297.576 13.8628 296.798 14.4234 295.491 14.4234L295.491 12.8237C296.61 12.8237 296.89 11.9881 296.89 11.032 296.89 9.66934 296.498 8.15727 295.636 7.07685 295.025 6.3104 294.232 5.84204 293.36 5.84204 292.417 5.84204 291.658 6.41979 290.806 7.44966 290.352 7.99697 289.887 8.66363 289.364 9.41607L288.789 10.244C287.633 11.9082 287.34 12.2871 286.762 12.9128 285.749 14.0082 284.884 14.4234 283.745 14.4234 282.395 14.4234 281.54 13.9484 281.011 13.2327 280.58 12.6492 280.367 11.8839 280.367 11.0119Z" fill="#0081FB" fill-rule="evenodd"/><path d="M281.917 6.49652C282.822 5.36464 284.127 4.57291 285.625 4.57291 286.492 4.57291 287.354 4.78136 288.254 5.37793 289.239 6.03038 290.288 7.10471 291.598 8.87521L292.067 9.51052C293.2 11.0434 293.845 11.8318 294.223 12.2037 294.708 12.6811 295.048 12.8237 295.489 12.8237 296.609 12.8237 296.889 11.9881 296.889 11.032L298.63 10.9875C298.63 11.987 298.387 12.7215 297.974 13.3017 297.575 13.8628 296.797 14.4234 295.489 14.4234 294.676 14.4234 293.956 14.2801 293.159 13.6699 292.547 13.2017 291.831 12.3697 291.28 11.6219L289.642 9.40002C288.819 8.28529 288.065 7.45391 287.629 7.07741 287.159 6.67232 286.556 6.18349 285.593 6.18349 284.813 6.18349 284.151 6.62749 283.597 7.3067Z" fill="url(#fill0)" fill-rule="evenodd"/><path d="M285.593 6.18201C284.814 6.18201 284.153 6.62565 283.6 7.30412 282.818 8.26297 282.338 9.6913 282.338 11.0628 282.338 11.6287 282.491 12.063 282.691 12.3258L281.011 13.2244C280.579 12.6416 280.367 11.877 280.367 11.0058 280.367 9.42142 280.903 7.77008 281.922 6.49487 282.825 5.36372 284.129 4.57291 285.625 4.57291Z" fill="url(#fill1)" fill-rule="evenodd"/></g></svg>