<?xml version="1.0" encoding="UTF-8" standalone="no" ?>
<!DOCTYPE svg PUBLIC "-//W3C//DTD SVG 1.1//EN" "http://www.w3.org/Graphics/SVG/1.1/DTD/svg11.dtd">
<svg xmlns="http://www.w3.org/2000/svg" xmlns:xlink="http://www.w3.org/1999/xlink" version="1.1" width="500" height="500" viewBox="0 0 500 500" xml:space="preserve">
<!-- Created with SVG Stack Editor - https://svgstack.com -->
<defs>
</defs>
<rect x="0" y="0" width="100%" height="100%" fill="transparent"></rect>
<g transform="matrix(3.88 0 0 3.88 250 250)"  >
<g style=""   >
		<g transform="matrix(1 0 0 1 0 0)" id="path_0"  >
<rect style="stroke: none; stroke-width: 1; stroke-dasharray: none; stroke-linecap: butt; stroke-dashoffset: 0; stroke-linejoin: miter; stroke-miterlimit: 4; fill: rgb(32,34,34); fill-rule: nonzero; opacity: 1;"  x="-64" y="-64" rx="32" ry="32" width="128" height="128" />
</g>
		<g transform="matrix(1 0 0 1 12.05 11.13)" id="path_1"  >
<path style="stroke: rgb(255,255,255); stroke-width: 3.77096; stroke-dasharray: none; stroke-linecap: butt; stroke-dashoffset: 0; stroke-linejoin: miter; stroke-miterlimit: 4; fill: none; fill-rule: nonzero; opacity: 1;"  transform=" translate(-76.05, -75.13)" d="M 88.1821 71.1603 L 63.926 48.8562 L 63.926 79.7827 L 88.1821 101.411 L 88.1821 71.1603 Z" stroke-linecap="round" />
</g>
		<g transform="matrix(1 0 0 1 17.11 1.03)" id="path_2"  >
<path style="stroke: rgb(255,255,255); stroke-width: 3.77096; stroke-dasharray: none; stroke-linecap: butt; stroke-dashoffset: 0; stroke-linejoin: miter; stroke-miterlimit: 4; fill: none; fill-rule: nonzero; opacity: 1;"  transform=" translate(-81.11, -65.03)" d="M 63.926 48.8562 L 88.1822 71.1602 L 88.1822 81.1976 L 98.2889 81.1976 L 98.2889 48.8562 L 63.926 48.8562 Z" stroke-linecap="round" />
</g>
		<g transform="matrix(1 0 0 1 -12.2 11.13)" id="path_3"  >
<path style="stroke: rgb(255,255,255); stroke-width: 3.77096; stroke-dasharray: none; stroke-linecap: butt; stroke-dashoffset: 0; stroke-linejoin: miter; stroke-miterlimit: 4; fill: none; fill-rule: nonzero; opacity: 1;"  transform=" translate(-51.8, -75.13)" d="M 39.6697 71.1603 L 63.9258 48.8562 L 63.9258 79.7827 L 39.6697 101.411 L 39.6697 71.1603 Z" stroke-linecap="round" />
</g>
		<g transform="matrix(1 0 0 1 -17.18 1.03)" id="path_4"  >
<path style="stroke: rgb(255,255,255); stroke-width: 3.77096; stroke-dasharray: none; stroke-linecap: butt; stroke-dashoffset: 0; stroke-linejoin: miter; stroke-miterlimit: 4; fill: none; fill-rule: nonzero; opacity: 1;"  transform=" translate(-46.82, -65.03)" d="M 29.7109 48.8562 L 29.7109 81.1977 L 39.6642 81.1977 L 39.6642 71.1603 L 63.9259 48.8562 L 29.7109 48.8562 Z" stroke-linecap="round" />
</g>
		<g transform="matrix(1 0 0 1 12.05 -26.46)" id="path_5"  >
<path style="stroke: rgb(255,255,255); stroke-width: 3.77096; stroke-dasharray: none; stroke-linecap: butt; stroke-dashoffset: 0; stroke-linejoin: miter; stroke-miterlimit: 4; fill: none; fill-rule: nonzero; opacity: 1;"  transform=" translate(-76.05, -37.54)" d="M 63.926 48.856 L 88.1822 26.231 L 88.1822 48.856 L 63.926 48.856 Z" stroke-linecap="round" />
</g>
		<g transform="matrix(1 0 0 1 -12.2 -26.46)" id="path_6"  >
<path style="stroke: rgb(255,255,255); stroke-width: 3.77096; stroke-dasharray: none; stroke-linecap: butt; stroke-dashoffset: 0; stroke-linejoin: miter; stroke-miterlimit: 4; fill: none; fill-rule: nonzero; opacity: 1;"  transform=" translate(-51.8, -37.54)" d="M 63.9258 48.856 L 39.6697 26.2309 L 39.6697 48.856 L 63.9258 48.856 Z" stroke-linecap="round" />
</g>
		<g transform="matrix(1 0 0 1 -0.07 0)" id="path_7"  >
<path style="stroke: rgb(255,255,255); stroke-width: 3.77096; stroke-dasharray: none; stroke-linecap: butt; stroke-dashoffset: 0; stroke-linejoin: miter; stroke-miterlimit: 4; fill: none; fill-rule: nonzero; opacity: 1;"  transform=" translate(-63.93, -64)" d="M 63.926 22.5625 L 63.926 105.438" stroke-linecap="round" />
</g>
</g>
</g>
<g transform="matrix(3.88 0 0 3.88 250 250)"  >
<g style=""   >
		<g transform="matrix(1 0 0 1 0 0)" id="path_0"  >
<rect style="stroke: none; stroke-width: 1; stroke-dasharray: none; stroke-linecap: butt; stroke-dashoffset: 0; stroke-linejoin: miter; stroke-miterlimit: 4; fill: rgb(32,34,34); fill-rule: nonzero; opacity: 1;"  x="-64" y="-64" rx="32" ry="32" width="128" height="128" />
</g>
		<g transform="matrix(1 0 0 1 12.05 11.13)" id="path_1"  >
<path style="stroke: rgb(255,255,255); stroke-width: 3.77096; stroke-dasharray: none; stroke-linecap: butt; stroke-dashoffset: 0; stroke-linejoin: miter; stroke-miterlimit: 4; fill: none; fill-rule: nonzero; opacity: 1;"  transform=" translate(-76.05, -75.13)" d="M 88.1821 71.1603 L 63.926 48.8562 L 63.926 79.7827 L 88.1821 101.411 L 88.1821 71.1603 Z" stroke-linecap="round" />
</g>
		<g transform="matrix(1 0 0 1 17.11 1.03)" id="path_2"  >
<path style="stroke: rgb(255,255,255); stroke-width: 3.77096; stroke-dasharray: none; stroke-linecap: butt; stroke-dashoffset: 0; stroke-linejoin: miter; stroke-miterlimit: 4; fill: none; fill-rule: nonzero; opacity: 1;"  transform=" translate(-81.11, -65.03)" d="M 63.926 48.8562 L 88.1822 71.1602 L 88.1822 81.1976 L 98.2889 81.1976 L 98.2889 48.8562 L 63.926 48.8562 Z" stroke-linecap="round" />
</g>
		<g transform="matrix(1 0 0 1 -12.2 11.13)" id="path_3"  >
<path style="stroke: rgb(255,255,255); stroke-width: 3.77096; stroke-dasharray: none; stroke-linecap: butt; stroke-dashoffset: 0; stroke-linejoin: miter; stroke-miterlimit: 4; fill: none; fill-rule: nonzero; opacity: 1;"  transform=" translate(-51.8, -75.13)" d="M 39.6697 71.1603 L 63.9258 48.8562 L 63.9258 79.7827 L 39.6697 101.411 L 39.6697 71.1603 Z" stroke-linecap="round" />
</g>
		<g transform="matrix(1 0 0 1 -17.18 1.03)" id="path_4"  >
<path style="stroke: rgb(255,255,255); stroke-width: 3.77096; stroke-dasharray: none; stroke-linecap: butt; stroke-dashoffset: 0; stroke-linejoin: miter; stroke-miterlimit: 4; fill: none; fill-rule: nonzero; opacity: 1;"  transform=" translate(-46.82, -65.03)" d="M 29.7109 48.8562 L 29.7109 81.1977 L 39.6642 81.1977 L 39.6642 71.1603 L 63.9259 48.8562 L 29.7109 48.8562 Z" stroke-linecap="round" />
</g>
		<g transform="matrix(1 0 0 1 12.05 -26.46)" id="path_5"  >
<path style="stroke: rgb(255,255,255); stroke-width: 3.77096; stroke-dasharray: none; stroke-linecap: butt; stroke-dashoffset: 0; stroke-linejoin: miter; stroke-miterlimit: 4; fill: none; fill-rule: nonzero; opacity: 1;"  transform=" translate(-76.05, -37.54)" d="M 63.926 48.856 L 88.1822 26.231 L 88.1822 48.856 L 63.926 48.856 Z" stroke-linecap="round" />
</g>
		<g transform="matrix(1 0 0 1 -12.2 -26.46)" id="path_6"  >
<path style="stroke: rgb(255,255,255); stroke-width: 3.77096; stroke-dasharray: none; stroke-linecap: butt; stroke-dashoffset: 0; stroke-linejoin: miter; stroke-miterlimit: 4; fill: none; fill-rule: nonzero; opacity: 1;"  transform=" translate(-51.8, -37.54)" d="M 63.9258 48.856 L 39.6697 26.2309 L 39.6697 48.856 L 63.9258 48.856 Z" stroke-linecap="round" />
</g>
		<g transform="matrix(1 0 0 1 -0.07 0)" id="path_7"  >
<path style="stroke: rgb(255,255,255); stroke-width: 3.77096; stroke-dasharray: none; stroke-linecap: butt; stroke-dashoffset: 0; stroke-linejoin: miter; stroke-miterlimit: 4; fill: none; fill-rule: nonzero; opacity: 1;"  transform=" translate(-63.93, -64)" d="M 63.926 22.5625 L 63.926 105.438" stroke-linecap="round" />
</g>
</g>
</g>
</svg>